<?xml version="1.0" encoding="utf-8"?>
<!-- Generator: Adobe Illustrator 24.0.1, SVG Export Plug-In . SVG Version: 6.00 Build 0)  -->
<svg version="1.1" id="Capa_1" xmlns="http://www.w3.org/2000/svg" xmlns:xlink="http://www.w3.org/1999/xlink" x="0px" y="0px"
	 viewBox="0 0 499 637" style="enable-background:new 0 0 499 637;" xml:space="preserve">
<style type="text/css">
	.st0{fill:#FF9100;}
	.st1{fill:#FFFFFF;}
</style>
<image style="display:none;overflow:visible;enable-background:new    ;" width="93" height="116" id="XMLID_1_" xlink:href="5AB5F1F1.jpeg"  transform="matrix(5.5268 0 0 5.5268 -12 1.89)">
</image>
<path id="XMLID_14_" class="st0" d="M250.5,241.6l-78.7,78.7l48.1,48.1l0,0l30.6,30.6l30.6-30.6l48.1-48.1L250.5,241.6z M264.6,352
	l-14.2-14.2L236.3,352l-31.7-31.7l45.9-45.9l45.9,45.9L264.6,352z"/>
<polygon id="XMLID_9_" class="st1" points="72.7,11.7 15.2,11.7 183.6,263.9 218.1,229.4 "/>
<polygon id="XMLID_8_" class="st1" points="427.2,11.7 484.8,11.7 316.3,263.9 281.8,229.4 "/>
<polygon id="XMLID_12_" class="st1" points="72.7,628.9 15.2,628.9 183.6,376.7 218.1,411.2 "/>
<polygon id="XMLID_10_" class="st1" points="427.2,628.9 484.8,628.9 316.3,376.7 281.8,411.2 "/>
</svg>
